<svg width="78" height="72" viewBox="0 0 78 72" fill="none" xmlns="http://www.w3.org/2000/svg">
<path d="M13.0166 71.3906H64.6768C73.0264 71.3906 77.1279 67.2891 77.1279 59.0859V12.5039C77.1279 4.30081 73.0264 0.199219 64.6768 0.199219H13.0166C4.71581 0.199219 0.56543 4.30081 0.56543 12.5039V59.0859C0.56543 67.2891 4.71581 71.3906 13.0166 71.3906ZM12.333 64.3106C9.30571 64.3106 7.59671 62.6992 7.59671 59.5254V22.8066C7.59671 19.6328 9.30571 18.0215 12.333 18.0215H65.3115C68.3389 18.0215 70.0967 19.6328 70.0967 22.8066V59.5254C70.0967 62.6992 68.3389 64.3106 65.3115 64.3106H12.333Z" fill="#4EA9F5"/>
<path d="M19.2667 32.4258H58.4757C59.9894 32.4258 61.1124 31.2539 61.1124 29.7402C61.1124 28.2754 59.9894 27.1523 58.4757 27.1523H19.2667C17.7042 27.1523 16.5811 28.2754 16.5811 29.7402C16.5811 31.2539 17.7042 32.4258 19.2667 32.4258Z" fill="#4EA9F5"/>
<path d="M19.2667 43.8027H58.4757C59.9894 43.8027 61.1124 42.6797 61.1124 41.2148C61.1124 39.7012 59.9894 38.5293 58.4757 38.5293H19.2667C17.7042 38.5293 16.5811 39.7012 16.5811 41.2148C16.5811 42.6797 17.7042 43.8027 19.2667 43.8027Z" fill="#4EA9F5"/>
<path d="M19.2667 55.1797H43.8272C45.3409 55.1797 46.464 54.0567 46.464 52.5919C46.464 51.0782 45.3409 49.9062 43.8272 49.9062H19.2667C17.7042 49.9062 16.5811 51.0782 16.5811 52.5919C16.5811 54.0567 17.7042 55.1797 19.2667 55.1797Z" fill="#4EA9F5"/>
</svg>
