<svg width="86" height="54" viewBox="0 0 86 54" fill="none" xmlns="http://www.w3.org/2000/svg">
<path d="M0 18.6523C0 29.0039 7.66598 37.207 17.3828 37.207C21.875 37.207 26.0254 35.4492 29.0039 32.2753H30.0782C27.6367 39.4531 20.9473 44.7265 13.4278 47.2167C12.1094 47.6562 11.1328 48.0468 10.6446 48.5839C10.0098 49.1699 9.81448 49.8535 9.81448 50.6835C9.81448 52.4902 11.084 53.7109 13.0371 53.7109C14.2578 53.7109 15.0391 53.5156 16.7969 52.9296C21.9727 51.123 26.709 48.0957 30.3711 44.2871C35.5957 38.8671 38.8184 31.5917 38.8184 22.998C38.8184 8.3984 29.5899 0 18.75 0C8.05668 0 0 8.1543 0 18.6523ZM46.6309 18.6523C46.6309 29.0039 54.2969 37.207 64.0137 37.207C68.5059 37.207 72.6074 35.4492 75.6348 32.2753H76.6602C74.3164 39.4531 67.5782 44.7265 60.0586 47.2167C58.7403 47.6562 57.8125 48.0468 57.2754 48.5839C56.6895 49.1699 56.3965 49.8535 56.3965 50.6835C56.3965 52.4902 57.7637 53.7109 59.7168 53.7109C60.8887 53.7109 61.6699 53.5156 63.4278 52.9296C68.6035 51.123 73.3399 48.0957 77.002 44.2871C82.2266 38.8671 85.4981 31.5917 85.4981 22.998C85.4981 8.3984 76.2207 0 65.4297 0C54.7364 0 46.6309 8.1543 46.6309 18.6523Z" fill="#CB30E0"/>
</svg>
