<svg width="98" height="98" viewBox="0 0 98 98" fill="none" xmlns="http://www.w3.org/2000/svg">
<path d="M89.9127 74.6725C94.8845 69.7007 94.8503 64.6254 89.8094 59.5846L37.9849 7.76001C32.9439 2.71904 27.9375 2.75364 22.9657 7.72545L7.77395 22.9172C2.80207 27.8891 2.80213 32.93 7.84302 37.9709L59.6676 89.7954C64.7086 94.8364 69.7491 94.8361 74.721 89.8642L89.9127 74.6725ZM83.9744 70.5986L70.647 83.9259C68.3683 86.2047 65.9859 86.1702 63.8107 83.995L13.5744 33.7586C11.4338 31.618 11.3993 29.2356 13.678 26.9569L27.0053 13.6296C29.2841 11.3508 31.6664 11.3853 33.8416 13.5605L84.078 63.7969C86.2186 65.9375 86.2532 68.3198 83.9744 70.5986ZM38.0539 14.3891L35.7061 12.0413L21.2049 26.5425C20.5489 27.1985 20.5834 28.1998 21.2394 28.8558C21.9299 29.5463 22.9312 29.5118 23.5872 28.8558L38.0539 14.3891ZM42.8186 19.1538L40.4708 16.806L30.7343 26.5425C30.0782 27.1986 30.1127 28.1998 30.7687 28.8558C31.4593 29.5464 32.4606 29.5118 33.1166 28.8558L42.8186 19.1538ZM47.5487 23.884L45.2009 21.5361L35.4644 31.2727C34.8083 31.9287 34.8428 32.93 35.4989 33.586C36.224 34.3111 37.1907 34.2419 37.8467 33.5859L47.5487 23.884ZM52.2789 28.6141L49.9311 26.2663L40.1946 36.0028C39.5385 36.6589 39.6075 37.6947 40.229 38.3161C40.9541 39.0412 41.9209 38.9721 42.5769 38.3161L52.2789 28.6141ZM57.0781 33.4133L54.6957 31.031L44.9592 40.7675C44.3031 41.4235 44.3722 42.4594 44.9937 43.0808C45.7188 43.8059 46.7201 43.7713 47.3761 43.1153L57.0781 33.4133ZM61.8428 38.178L59.4604 35.7957L44.9592 50.2969C44.3032 50.9528 44.3723 51.9887 44.9938 52.6102C45.7188 53.3352 46.7201 53.3007 47.3761 52.6447L61.8428 38.178ZM66.5729 42.9082L64.1906 40.5259L54.4541 50.2624C53.798 50.9184 53.867 51.9542 54.5231 52.6102C55.2136 53.3007 56.2149 53.2661 56.8709 52.6102L66.5729 42.9082ZM71.3376 47.6729L68.9898 45.3251L59.2533 55.0616C58.5972 55.7176 58.6317 56.7189 59.2877 57.3749C59.9783 58.0654 60.9796 58.0308 61.6356 57.3749L71.3376 47.6729ZM76.0677 52.403L73.7199 50.0552L63.9834 59.7917C63.3274 60.4477 63.3619 61.4491 64.0179 62.1051C64.7085 62.7956 65.7097 62.761 66.3657 62.105L76.0677 52.403ZM80.8324 57.1677L78.4846 54.8199L68.7481 64.5564C68.0921 65.2124 68.1266 66.2137 68.7826 66.8698C69.5077 67.5948 70.4744 67.5257 71.1304 66.8697L80.8324 57.1677ZM85.5971 61.9324L83.2493 59.5846L68.7481 74.0858C68.0921 74.7418 68.1266 75.743 68.7827 76.3991C69.5077 77.1241 70.4744 77.0551 71.1304 76.3991L85.5971 61.9324Z" fill="#A779E9"/>
</svg>
