<svg width="87" height="87" viewBox="0 0 87 87" fill="none" xmlns="http://www.w3.org/2000/svg">
<path d="M41.1596 82.3223L4.0014 45.1152C0.974004 42.0879 0.778709 40.2812 0.778709 36.2773V21.7266C0.778709 17.4297 1.9018 16.1113 4.8315 13.2305L13.5229 4.49023C16.4037 1.60943 17.7709 0.486328 22.019 0.486328H36.5697C40.5736 0.486328 42.3803 0.632833 45.4076 3.66023L82.6147 40.8672C88.2787 46.5312 88.4252 52.3906 82.5658 58.1523L58.4447 82.2735C52.5854 88.084 46.8236 88.0352 41.1596 82.3223ZM45.8959 77.0489C48.3861 79.5879 51.1205 79.6368 53.7572 77L77.3412 53.416C79.9291 50.8281 79.8803 48.0938 77.3901 45.5547L40.4272 8.64063C39.7436 8.00593 39.1088 7.51763 37.8881 7.51763H21.7748C20.6518 7.51763 20.017 7.95703 19.2846 8.64063L8.9818 18.9922C8.2494 19.6758 7.85881 20.3594 7.85881 21.4824V37.5957C7.85881 38.7676 8.2983 39.4512 8.9818 40.1348L45.8959 77.0489ZM26.6088 31.8828C23.3861 31.8828 20.9936 29.3926 20.9936 26.2676C20.9936 23.1914 23.3861 20.7012 26.6088 20.7012C29.7826 20.7012 32.1752 23.1914 32.1752 26.2676C32.1752 29.3926 29.7826 31.8828 26.6088 31.8828Z" fill="#4ADC84"/>
</svg>
