<svg width="1800" height="1800" viewBox="0 0 1800 1800" fill="none" xmlns="http://www.w3.org/2000/svg">
<g clip-path="url(#clip0_14_218)">
<line x1="0.000122348" y1="1005" x2="1800" y2="1005" stroke="#F2F2F2" stroke-width="10"/>
<line x1="0.000122348" y1="1205" x2="1800" y2="1205" stroke="#F2F2F2" stroke-width="10"/>
<line x1="0.000122348" y1="1405" x2="1800" y2="1405" stroke="#F2F2F2" stroke-width="10"/>
<line x1="0.000122348" y1="1605" x2="1800" y2="1605" stroke="#F2F2F2" stroke-width="10"/>
<line x1="0.000122348" y1="805" x2="1800" y2="805" stroke="#F2F2F2" stroke-width="10"/>
<line x1="0.000122348" y1="605" x2="1800" y2="605" stroke="#F2F2F2" stroke-width="10"/>
<line x1="0.000122348" y1="405" x2="1800" y2="405" stroke="#F2F2F2" stroke-width="10"/>
<line x1="0.000122348" y1="205" x2="1800" y2="205" stroke="#F2F2F2" stroke-width="10"/>
<line x1="2.78181e-07" y1="5" x2="1800" y2="5.0001" stroke="#F2F2F2" stroke-width="10"/>
<line x1="805" y1="2.18557e-07" x2="805" y2="1800" stroke="#F2F2F2" stroke-width="10"/>
<line x1="605" y1="2.18557e-07" x2="605" y2="1800" stroke="#F2F2F2" stroke-width="10"/>
<line x1="405" y1="2.18557e-07" x2="405" y2="1800" stroke="#F2F2F2" stroke-width="10"/>
<line x1="205" y1="2.18557e-07" x2="205" y2="1800" stroke="#F2F2F2" stroke-width="10"/>
<line x1="5.00024" y1="2.18557e-07" x2="5.00017" y2="1800" stroke="#F2F2F2" stroke-width="10"/>
<line x1="1005" y1="2.18557e-07" x2="1005" y2="1800" stroke="#F2F2F2" stroke-width="10"/>
<line x1="1205" y1="2.18557e-07" x2="1205" y2="1800" stroke="#F2F2F2" stroke-width="10"/>
<line x1="1405" y1="2.18557e-07" x2="1405" y2="1800" stroke="#F2F2F2" stroke-width="10"/>
<line x1="1605" y1="2.18557e-07" x2="1605" y2="1800" stroke="#F2F2F2" stroke-width="10"/>
</g>
<defs>
<clipPath id="clip0_14_218">
<rect width="1800" height="1800" fill="white"/>
</clipPath>
</defs>
</svg>
