<svg width="1920" height="3000" viewBox="0 0 1920 3000" fill="none" xmlns="http://www.w3.org/2000/svg">
<g clip-path="url(#clip0_1_45)">
<path d="M742 234C791.153 234 831 194.153 831 145C831 95.8467 791.153 56 742 56C692.846 56 653 95.8467 653 145C653 194.153 692.846 234 742 234Z" fill="#F91585"/>
<path d="M749 222C798.153 222 838 182.153 838 133C838 83.8467 798.153 44 749 44C699.846 44 660 83.8467 660 133C660 182.153 699.846 222 749 222Z" fill="#FCDD0C"/>
<path d="M956 640.802L977.847 478L1107.91 578.382L956 640.802Z" fill="#7100B4"/>
<path d="M937 630.802L958.847 468L1088.91 568.382L937 630.802Z" fill="#FA0027"/>
<path d="M1121.38 264.047L1208.55 329L1234.68 215.903L1327.88 285.374L1354.02 172.229L1446 242.186" stroke="#FA0027" stroke-width="28.7888" stroke-miterlimit="10"/>
<path d="M1108 236.77L1195.16 301.723L1221.3 188.626L1314.5 258.097L1340.63 145L1432.62 214.908" stroke="#2DB9E6" stroke-width="28.7888" stroke-miterlimit="10"/>
<path d="M1763.2 329.008C1692.54 285.904 1600.39 308.27 1557.32 378.872L1813.12 534.922C1856.13 464.287 1833.8 372.079 1763.2 329.008Z" fill="#FCDD0C"/>
<path d="M1766.8 356.128C1696.15 313.025 1603.99 335.39 1560.92 405.993L1816.72 562.042C1859.79 491.44 1837.46 399.232 1766.8 356.128Z" fill="#F91585"/>
<path d="M939.571 1447L826.716 1637.58L718.13 1444.48L939.571 1447Z" fill="#FCDD0C"/>
<path d="M957.89 1469.42L845.035 1660L736.448 1466.9L957.89 1469.42Z" fill="#F91585"/>
<path d="M1523.34 945.042L1662.89 865.422L1662.02 1026.12L1523.34 945.042Z" fill="#FA0027"/>
<path d="M1519.84 924.334L1659.39 844.714L1658.52 1005.42L1519.84 924.334Z" fill="#FCDD0C"/>
<path d="M1070 2148C1119.15 2148 1159 2108.15 1159 2059C1159 2009.85 1119.15 1970 1070 1970C1020.85 1970 981 2009.85 981 2059C981 2108.15 1020.85 2148 1070 2148Z" fill="#2DB9E6"/>
<path d="M1077 2136C1126.15 2136 1166 2096.15 1166 2047C1166 1997.85 1126.15 1958 1077 1958C1027.85 1958 988 1997.85 988 2047C988 2096.15 1027.85 2136 1077 2136Z" fill="#FCDD0C"/>
<path d="M401.848 901.425L459.693 820.327L514.135 911.841L575.978 825.11L630.434 916.667L691.08 829.851" stroke="#FCDD0C" stroke-width="28.7888" stroke-miterlimit="10"/>
<path d="M397.809 928.996L455.654 847.898L510.095 939.412L571.939 852.681L626.38 944.195L687.041 857.422" stroke="#F91585" stroke-width="28.7888" stroke-miterlimit="10"/>
<path d="M1635.22 1679.83L1552.96 1758.83L1511.08 1644.32L1423.13 1728.82L1381.24 1614.26L1294.62 1699.1" stroke="#FA0027" stroke-width="28.7888" stroke-miterlimit="10"/>
<path d="M1645.61 1649.66L1563.34 1728.66L1521.47 1614.16L1433.51 1698.65L1391.64 1584.14L1305 1668.93" stroke="#2DB9E6" stroke-width="28.7888" stroke-miterlimit="10"/>
<path d="M199.205 2275.87L298.232 2350L327.924 2220.92L433.807 2300.21L463.499 2171.08L568 2250.92" stroke="#7100B4" stroke-width="28.7888" stroke-miterlimit="10"/>
<path d="M184 2244.74L283.027 2318.87L312.719 2189.79L418.602 2269.08L448.294 2140L552.795 2219.79" stroke="#FCDD0C" stroke-width="28.7888" stroke-miterlimit="10"/>
<path d="M1108.8 2463L1148.81 2761.66L1387 2577.51L1108.8 2463Z" fill="#FA0027"/>
<path d="M1074 2481.34L1114.01 2780L1352.2 2595.85L1074 2481.34Z" fill="#2DB9E6"/>
<path d="M368.268 1285.26C368.268 1380.02 291.747 1456.75 197.411 1456.75L197.411 1113.69C291.746 1113.76 368.268 1190.57 368.268 1285.26Z" fill="#2DB9E6"/>
<path d="M343.999 1265.57C343.999 1360.32 267.478 1437.06 173.142 1437.06L173.142 1094C267.478 1094 343.999 1170.81 343.999 1265.57Z" fill="#FA0027"/>
<path d="M606.824 2652C705.829 2652 786 2732.01 786 2830.66H427.573C427.649 2732.01 507.896 2652 606.824 2652Z" fill="#7100B4"/>
<path d="M586.251 2677.38C685.255 2677.38 765.427 2757.39 765.427 2856.03H407C407 2757.39 487.247 2677.38 586.251 2677.38Z" fill="#F91585"/>
<path d="M1177.05 933.102C1102.74 902.841 1017.98 938.522 987.731 1012.8C957.486 1087.07 993.211 1171.82 1067.53 1202.08C1141.84 1232.34 1226.6 1196.66 1256.85 1122.38C1287.09 1048.11 1251.37 963.363 1177.05 933.102Z" fill="#7100B4"/>
<path d="M1159.09 946.926C1084.77 916.665 1000.01 952.346 969.764 1026.62C939.519 1100.9 975.244 1185.64 1049.56 1215.9C1123.87 1246.16 1208.64 1210.48 1238.88 1136.21C1269.13 1061.93 1233.4 977.187 1159.09 946.926Z" fill="#2DB9E6"/>
<path d="M158.81 353.705C277.753 264.417 446.672 288.426 536 407.316" stroke="#7100B4" stroke-width="75.6299" stroke-miterlimit="10"/>
<path d="M153 378.684C271.943 289.396 440.862 313.405 530.19 432.295" stroke="#F91585" stroke-width="75.6299" stroke-miterlimit="10"/>
<path d="M1749.19 2481.79C1604.59 2461.26 1504.01 2327.32 1524.6 2182.71" stroke="#F91585" stroke-width="75.6299" stroke-miterlimit="10"/>
<path d="M1770.58 2468.47C1625.97 2447.94 1525.39 2314 1545.99 2169.38" stroke="#7100B4" stroke-width="75.6299" stroke-miterlimit="10"/>
<path d="M371.12 1736.69C478.645 1725.98 574.542 1804.5 585.255 1912.02" stroke="#7100B4" stroke-width="75.6299" stroke-miterlimit="10"/>
<path d="M358.102 1750.03C465.627 1739.32 561.524 1817.84 572.237 1925.36" stroke="#2DB9E6" stroke-width="75.6299" stroke-miterlimit="10"/>
</g>
<defs>
<clipPath id="clip0_1_45">
<rect width="1920" height="3000" fill="white"/>
</clipPath>
</defs>
</svg>
