<svg width="310" height="279" viewBox="0 0 310 279" fill="none" xmlns="http://www.w3.org/2000/svg">
<path d="M104.5 242C162.214 242 209 195.214 209 137.5C209 79.7864 162.214 33.0001 104.5 33.0001C46.786 33.0001 0 79.7864 0 137.5C0 195.214 46.786 242 104.5 242Z" fill="#FF2AAC"/>
<path d="M98.9836 2.00007L299.23 109.588L105.856 229.178L98.9836 2.00007Z" fill="#2DB9E6"/>
<g filter="url(#filter0_d_29_345)">
<mask id="path-3-outside-1_29_345" maskUnits="userSpaceOnUse" x="16" y="17.0001" width="112" height="152" fill="black">
<rect fill="white" x="16" y="17.0001" width="112" height="152"/>
<path d="M121.758 27.6954L116.289 68.9063C114.401 68.3855 112.513 68.0274 110.625 67.8321C108.737 67.6368 106.849 67.5391 104.961 67.5391C100.143 67.5391 95.5534 68.1902 91.1914 69.4922C86.8294 70.7292 82.9557 72.6498 79.5703 75.254C76.25 77.8581 73.5807 81.1133 71.5625 85.0196C69.6094 88.9258 68.6328 93.5157 68.6328 98.7891C68.6328 102.175 69.1536 105.104 70.1953 107.578C71.3021 110.052 72.832 112.103 74.7852 113.731C76.7383 115.358 79.0495 116.563 81.7188 117.344C84.388 118.125 87.3177 118.516 90.5078 118.516C92.9167 118.516 95.4232 118.255 98.0273 117.734C100.632 117.214 103.203 116.53 105.742 115.684C108.281 114.837 110.755 113.861 113.164 112.754C115.573 111.647 117.786 110.508 119.805 109.336L115.898 155.234C113.359 156.537 110.592 157.708 107.598 158.75C104.668 159.727 101.641 160.606 98.5156 161.387C95.3906 162.103 92.2656 162.656 89.1406 163.047C86.0156 163.438 83.0208 163.633 80.1562 163.633C71.888 163.633 64.1732 162.103 57.0117 159.043C49.8503 155.983 43.6328 151.784 38.3594 146.445C33.0859 141.107 28.9193 134.824 25.8594 127.598C22.8646 120.306 21.3672 112.461 21.3672 104.063C21.3672 92.9297 22.9622 82.448 26.1523 72.6172C29.3424 62.7214 34.0299 54.0626 40.2148 46.6407C46.3997 39.2188 54.0495 33.3594 63.1641 29.0626C72.3438 24.7657 82.8906 22.6172 94.8047 22.6172C99.2969 22.6172 103.887 22.9753 108.574 23.6915C113.327 24.4076 117.721 25.7422 121.758 27.6954Z"/>
</mask>
<path d="M121.758 27.6954L116.289 68.9063C114.401 68.3855 112.513 68.0274 110.625 67.8321C108.737 67.6368 106.849 67.5391 104.961 67.5391C100.143 67.5391 95.5534 68.1902 91.1914 69.4922C86.8294 70.7292 82.9557 72.6498 79.5703 75.254C76.25 77.8581 73.5807 81.1133 71.5625 85.0196C69.6094 88.9258 68.6328 93.5157 68.6328 98.7891C68.6328 102.175 69.1536 105.104 70.1953 107.578C71.3021 110.052 72.832 112.103 74.7852 113.731C76.7383 115.358 79.0495 116.563 81.7188 117.344C84.388 118.125 87.3177 118.516 90.5078 118.516C92.9167 118.516 95.4232 118.255 98.0273 117.734C100.632 117.214 103.203 116.53 105.742 115.684C108.281 114.837 110.755 113.861 113.164 112.754C115.573 111.647 117.786 110.508 119.805 109.336L115.898 155.234C113.359 156.537 110.592 157.708 107.598 158.75C104.668 159.727 101.641 160.606 98.5156 161.387C95.3906 162.103 92.2656 162.656 89.1406 163.047C86.0156 163.438 83.0208 163.633 80.1562 163.633C71.888 163.633 64.1732 162.103 57.0117 159.043C49.8503 155.983 43.6328 151.784 38.3594 146.445C33.0859 141.107 28.9193 134.824 25.8594 127.598C22.8646 120.306 21.3672 112.461 21.3672 104.063C21.3672 92.9297 22.9622 82.448 26.1523 72.6172C29.3424 62.7214 34.0299 54.0626 40.2148 46.6407C46.3997 39.2188 54.0495 33.3594 63.1641 29.0626C72.3438 24.7657 82.8906 22.6172 94.8047 22.6172C99.2969 22.6172 103.887 22.9753 108.574 23.6915C113.327 24.4076 117.721 25.7422 121.758 27.6954Z" fill="#FCDD0C"/>
<path d="M121.758 27.6954L126.714 28.3531L127.19 24.7693L123.936 23.1946L121.758 27.6954ZM116.289 68.9063L114.959 73.7263L120.491 75.2522L121.246 69.5641L116.289 68.9063ZM91.1914 69.4922L92.5555 74.3026L92.5886 74.2932L92.6216 74.2833L91.1914 69.4922ZM79.5703 75.254L76.5218 71.2908L76.5031 71.3052L76.4846 71.3197L79.5703 75.254ZM71.5625 85.0196L67.1204 82.7245L67.1052 82.7539L67.0904 82.7835L71.5625 85.0196ZM70.1953 107.578L65.5871 109.518L65.6086 109.569L65.6312 109.62L70.1953 107.578ZM74.7852 113.731L77.9861 109.889L74.7852 113.731ZM81.7188 117.344L80.3143 122.142L81.7188 117.344ZM105.742 115.684L104.161 110.94L105.742 115.684ZM119.805 109.336L124.787 109.76L125.601 100.188L117.294 105.012L119.805 109.336ZM115.898 155.234L118.18 159.684L120.645 158.419L120.88 155.658L115.898 155.234ZM107.598 158.75L109.179 163.493L109.21 163.483L109.24 163.473L107.598 158.75ZM98.5156 161.387L99.6325 166.26L99.6805 166.249L99.7283 166.237L98.5156 161.387ZM25.8594 127.598L21.2343 129.497L21.2446 129.522L21.2551 129.547L25.8594 127.598ZM26.1523 72.6172L30.9082 74.1605L30.9112 74.1513L26.1523 72.6172ZM63.1641 29.0626L61.0444 24.5341L61.032 24.5399L63.1641 29.0626ZM108.574 23.6915L107.819 28.6341L107.829 28.6357L108.574 23.6915ZM116.801 27.0376L111.333 68.2486L121.246 69.5641L126.714 28.3531L116.801 27.0376ZM117.619 64.0863C115.472 63.4942 113.312 63.0833 111.139 62.8586L110.111 72.8056C111.714 72.9715 113.33 73.2768 114.959 73.7263L117.619 64.0863ZM111.139 62.8586C109.081 62.6457 107.022 62.5391 104.961 62.5391V72.5391C106.676 72.5391 108.392 72.6278 110.111 72.8056L111.139 62.8586ZM104.961 62.5391C99.6872 62.5391 94.6136 63.2527 89.7612 64.7012L92.6216 74.2833C96.4931 73.1277 100.599 72.5391 104.961 72.5391V62.5391ZM89.8273 64.6819C84.8932 66.0812 80.4402 68.2766 76.5218 71.2908L82.6189 79.2171C85.4712 77.023 88.7657 75.3773 92.5555 74.3026L89.8273 64.6819ZM76.4846 71.3197C72.576 74.3853 69.4538 78.2083 67.1204 82.7245L76.0046 87.3147C77.7077 84.0184 79.924 81.331 82.656 79.1882L76.4846 71.3197ZM67.0904 82.7835C64.7253 87.5136 63.6328 92.8985 63.6328 98.7891H73.6328C73.6328 94.1328 74.4934 90.3381 76.0346 87.2557L67.0904 82.7835ZM63.6328 98.7891C63.6328 102.673 64.2289 106.293 65.5871 109.518L74.8035 105.638C74.0784 103.916 73.6328 101.676 73.6328 98.7891H63.6328ZM65.6312 109.62C67.0283 112.743 69.0072 115.424 71.5842 117.572L77.9861 109.889C76.6569 108.782 75.5759 107.361 74.7594 105.536L65.6312 109.62ZM71.5842 117.572C74.1119 119.678 77.0492 121.187 80.3143 122.142L83.1232 112.545C81.0498 111.938 79.3647 111.038 77.9861 109.889L71.5842 117.572ZM80.3143 122.142C83.501 123.075 86.9107 123.516 90.5078 123.516V113.516C87.7247 113.516 85.275 113.175 83.1232 112.545L80.3143 122.142ZM90.5078 123.516C93.2775 123.516 96.1134 123.216 99.0079 122.637L97.0468 112.832C94.733 113.294 92.5559 113.516 90.5078 113.516V123.516ZM99.0079 122.637C101.817 122.076 104.589 121.338 107.323 120.427L104.161 110.94C101.817 111.722 99.4461 112.352 97.0468 112.832L99.0079 122.637ZM107.323 120.427C110.033 119.524 112.676 118.481 115.252 117.297L111.077 108.211C108.834 109.241 106.529 110.151 104.161 110.94L107.323 120.427ZM115.252 117.297C117.786 116.133 120.143 114.922 122.315 113.66L117.294 105.012C115.43 106.094 113.36 107.161 111.077 108.211L115.252 117.297ZM114.823 108.912L110.916 154.81L120.88 155.658L124.787 109.76L114.823 108.912ZM113.617 150.785C111.305 151.971 108.755 153.054 105.955 154.028L109.24 163.473C112.43 162.363 115.413 161.102 118.18 159.684L113.617 150.785ZM106.017 154.007C103.213 154.941 100.309 155.785 97.3029 156.536L99.7283 166.237C102.972 165.427 106.123 164.512 109.179 163.493L106.017 154.007ZM97.3987 156.513C94.4348 157.192 91.4755 157.716 88.5205 158.086L89.7608 168.008C93.0557 167.596 96.3465 167.013 99.6325 166.26L97.3987 156.513ZM88.5205 158.086C85.5812 158.453 82.7943 158.633 80.1562 158.633V168.633C83.2474 168.633 86.4501 168.422 89.7608 168.008L88.5205 158.086ZM80.1562 158.633C72.521 158.633 65.479 157.224 58.9763 154.445L55.0472 163.641C62.8674 166.982 71.255 168.633 80.1562 168.633V158.633ZM58.9763 154.445C52.388 151.63 46.7172 147.791 41.9165 142.932L34.8022 149.959C40.5485 155.776 47.3126 160.336 55.0472 163.641L58.9763 154.445ZM41.9165 142.932C37.1083 138.064 33.2882 132.319 30.4636 125.648L21.2551 129.547C24.5504 137.33 29.0636 144.15 34.8022 149.959L41.9165 142.932ZM30.4845 125.698C27.7531 119.048 26.3672 111.853 26.3672 104.063H16.3672C16.3672 113.069 17.9761 121.564 21.2343 129.497L30.4845 125.698ZM26.3672 104.063C26.3672 93.4134 27.8919 83.4558 30.9082 74.1605L21.3965 71.074C18.0326 81.4402 16.3672 92.4461 16.3672 104.063H26.3672ZM30.9112 74.1513C33.92 64.8179 38.3112 56.7353 44.056 49.8416L36.3737 43.4398C29.7487 51.3898 24.7649 60.6249 21.3935 71.0831L30.9112 74.1513ZM44.056 49.8416C49.7542 43.0038 56.8117 37.585 65.2962 33.5852L61.032 24.5399C51.2873 29.1339 43.0453 35.4339 36.3737 43.4398L44.056 49.8416ZM65.2838 33.591C73.6935 29.6546 83.4957 27.6172 94.8047 27.6172V17.6172C82.2855 17.6172 70.994 19.8768 61.0444 24.5341L65.2838 33.591ZM94.8047 27.6172C99.0305 27.6172 103.368 27.954 107.819 28.6341L109.329 18.7488C104.406 17.9966 99.5632 17.6172 94.8047 17.6172V27.6172ZM107.829 28.6357C112.12 29.2823 116.028 30.4772 119.58 32.1962L123.936 23.1946C119.415 21.0073 114.533 19.533 109.319 18.7473L107.829 28.6357Z" fill="#7100B4" mask="url(#path-3-outside-1_29_345)"/>
</g>
<mask id="path-5-outside-2_29_345" maskUnits="userSpaceOnUse" x="75.9998" y="61" width="175" height="144" fill="black">
<rect fill="white" x="75.9998" y="61" width="175" height="144"/>
<path d="M184.4 199.4C182.266 199.4 180.733 198.533 179.8 196.8C179 195.067 178.6 193.333 178.6 191.6C178.6 189.2 179.266 186.533 180.6 183.6C182.066 180.667 183.666 177.733 185.4 174.8C187.266 171.867 188.666 169.267 189.6 167C184.933 170.2 179.266 173.4 172.6 176.6C166.066 179.8 159.066 182.733 151.6 185.4C144.266 187.933 137.066 190 130 191.6C122.933 193.2 116.533 194 110.8 194C101.866 194 94.7331 191.867 89.3998 187.6C84.0664 183.333 81.3998 176.467 81.3998 167C81.3998 159.267 83.1998 151.467 86.7998 143.6C90.3998 135.6 95.2664 127.867 101.4 120.4C107.666 112.8 114.666 105.8 122.4 99.4C130.266 92.8667 138.533 87.1333 147.2 82.2C155.866 77.2667 164.4 73.4 172.8 70.6C181.333 67.8 189.266 66.4 196.6 66.4C200.2 66.4 203.4 67.4 206.2 69.4C209.133 71.2667 211.4 73.7333 213 76.8C214.733 79.8667 215.6 83.1333 215.6 86.6C215.6 89.5333 214.666 92.6 212.8 95.8C210.933 99 208.533 101.733 205.6 104C202.8 106.133 199.866 107.2 196.8 107.2C196.266 107.2 195.733 107.067 195.2 106.8C194.8 106.533 194.6 106.133 194.6 105.6C194.6 104.933 195.266 103.867 196.6 102.4C197.933 100.933 199.466 99.2 201.2 97.2C202.933 95.2 204.466 93 205.8 90.6C207.133 88.0667 207.8 85.4 207.8 82.6C207.8 79.4 206.6 77.2 204.2 76C201.933 74.8 199.4 74.2 196.6 74.2C191.133 74.2 184.666 75.7333 177.2 78.8C169.733 81.7333 161.933 85.8 153.8 91C145.666 96.2 137.733 102.067 130 108.6C122.266 115.133 115.2 122 108.8 129.2C102.533 136.267 97.5331 143.267 93.7998 150.2C90.0664 157 88.1998 163.333 88.1998 169.2C88.1998 173.6 89.5998 176.933 92.3998 179.2C95.1998 181.467 98.5331 183 102.4 183.8C106.4 184.6 110.133 185 113.6 185C118.133 185 123.866 184.333 130.8 183C137.866 181.667 145.333 179.8 153.2 177.4C161.066 174.867 168.6 171.933 175.8 168.6C183.133 165.133 189.333 161.267 194.4 157C199.6 152.733 202.933 148.133 204.4 143.2C203.2 142.8 201.333 142.6 198.8 142.6C195.866 142.6 192.266 142.867 188 143.4C183.866 143.8 179.666 144.333 175.4 145C171.133 145.533 167.2 146.133 163.6 146.8C160 147.333 157.266 147.733 155.4 148C148.866 149.6 143.266 151.267 138.6 153C134.066 154.733 130.666 155.6 128.4 155.6C125.866 155.6 124.6 154.133 124.6 151.2C124.6 148.8 126.266 146.8 129.6 145.2C133.066 143.467 137.6 142.067 143.2 141C148.8 139.8 154.933 138.867 161.6 138.2C168.266 137.4 174.866 136.867 181.4 136.6C188.066 136.2 194.066 135.933 199.4 135.8C204.866 135.667 209.133 135.6 212.2 135.6C214.466 135.6 217.4 135.667 221 135.8C224.733 135.8 228.466 136 232.2 136.4C235.933 136.667 239.066 137.133 241.6 137.8C244.133 138.467 245.4 139.4 245.4 140.6C245.4 141.4 244.8 141.933 243.6 142.2C242.533 142.467 241.2 142.6 239.6 142.6C237.866 142.6 236.133 142.533 234.4 142.4C232.666 142.133 231.466 142 230.8 142C227.333 142 223.6 143.4 219.6 146.2C215.733 148.867 211.866 152.4 208 156.8C204.266 161.067 200.8 165.667 197.6 170.6C194.533 175.533 192.066 180.267 190.2 184.8C188.333 189.333 187.4 193.133 187.4 196.2C187.4 197.267 187.466 198.067 187.6 198.6C187.066 198.733 186.533 198.867 186 199C185.466 199.267 184.933 199.4 184.4 199.4Z"/>
</mask>
<path d="M184.4 199.4C182.266 199.4 180.733 198.533 179.8 196.8C179 195.067 178.6 193.333 178.6 191.6C178.6 189.2 179.266 186.533 180.6 183.6C182.066 180.667 183.666 177.733 185.4 174.8C187.266 171.867 188.666 169.267 189.6 167C184.933 170.2 179.266 173.4 172.6 176.6C166.066 179.8 159.066 182.733 151.6 185.4C144.266 187.933 137.066 190 130 191.6C122.933 193.2 116.533 194 110.8 194C101.866 194 94.7331 191.867 89.3998 187.6C84.0664 183.333 81.3998 176.467 81.3998 167C81.3998 159.267 83.1998 151.467 86.7998 143.6C90.3998 135.6 95.2664 127.867 101.4 120.4C107.666 112.8 114.666 105.8 122.4 99.4C130.266 92.8667 138.533 87.1333 147.2 82.2C155.866 77.2667 164.4 73.4 172.8 70.6C181.333 67.8 189.266 66.4 196.6 66.4C200.2 66.4 203.4 67.4 206.2 69.4C209.133 71.2667 211.4 73.7333 213 76.8C214.733 79.8667 215.6 83.1333 215.6 86.6C215.6 89.5333 214.666 92.6 212.8 95.8C210.933 99 208.533 101.733 205.6 104C202.8 106.133 199.866 107.2 196.8 107.2C196.266 107.2 195.733 107.067 195.2 106.8C194.8 106.533 194.6 106.133 194.6 105.6C194.6 104.933 195.266 103.867 196.6 102.4C197.933 100.933 199.466 99.2 201.2 97.2C202.933 95.2 204.466 93 205.8 90.6C207.133 88.0667 207.8 85.4 207.8 82.6C207.8 79.4 206.6 77.2 204.2 76C201.933 74.8 199.4 74.2 196.6 74.2C191.133 74.2 184.666 75.7333 177.2 78.8C169.733 81.7333 161.933 85.8 153.8 91C145.666 96.2 137.733 102.067 130 108.6C122.266 115.133 115.2 122 108.8 129.2C102.533 136.267 97.5331 143.267 93.7998 150.2C90.0664 157 88.1998 163.333 88.1998 169.2C88.1998 173.6 89.5998 176.933 92.3998 179.2C95.1998 181.467 98.5331 183 102.4 183.8C106.4 184.6 110.133 185 113.6 185C118.133 185 123.866 184.333 130.8 183C137.866 181.667 145.333 179.8 153.2 177.4C161.066 174.867 168.6 171.933 175.8 168.6C183.133 165.133 189.333 161.267 194.4 157C199.6 152.733 202.933 148.133 204.4 143.2C203.2 142.8 201.333 142.6 198.8 142.6C195.866 142.6 192.266 142.867 188 143.4C183.866 143.8 179.666 144.333 175.4 145C171.133 145.533 167.2 146.133 163.6 146.8C160 147.333 157.266 147.733 155.4 148C148.866 149.6 143.266 151.267 138.6 153C134.066 154.733 130.666 155.6 128.4 155.6C125.866 155.6 124.6 154.133 124.6 151.2C124.6 148.8 126.266 146.8 129.6 145.2C133.066 143.467 137.6 142.067 143.2 141C148.8 139.8 154.933 138.867 161.6 138.2C168.266 137.4 174.866 136.867 181.4 136.6C188.066 136.2 194.066 135.933 199.4 135.8C204.866 135.667 209.133 135.6 212.2 135.6C214.466 135.6 217.4 135.667 221 135.8C224.733 135.8 228.466 136 232.2 136.4C235.933 136.667 239.066 137.133 241.6 137.8C244.133 138.467 245.4 139.4 245.4 140.6C245.4 141.4 244.8 141.933 243.6 142.2C242.533 142.467 241.2 142.6 239.6 142.6C237.866 142.6 236.133 142.533 234.4 142.4C232.666 142.133 231.466 142 230.8 142C227.333 142 223.6 143.4 219.6 146.2C215.733 148.867 211.866 152.4 208 156.8C204.266 161.067 200.8 165.667 197.6 170.6C194.533 175.533 192.066 180.267 190.2 184.8C188.333 189.333 187.4 193.133 187.4 196.2C187.4 197.267 187.466 198.067 187.6 198.6C187.066 198.733 186.533 198.867 186 199C185.466 199.267 184.933 199.4 184.4 199.4Z" fill="#FCDD0C"/>
<path d="M179.8 196.8L175.26 198.895L175.324 199.035L175.397 199.17L179.8 196.8ZM180.6 183.6L176.128 181.364L176.086 181.447L176.048 181.531L180.6 183.6ZM185.4 174.8L181.181 172.116L181.137 172.185L181.095 172.256L185.4 174.8ZM189.6 167L194.223 168.904L200.613 153.385L186.772 162.876L189.6 167ZM172.6 176.6L170.436 172.092L170.418 172.101L170.4 172.11L172.6 176.6ZM151.6 185.4L153.232 190.126L153.257 190.117L153.281 190.109L151.6 185.4ZM130 191.6L128.896 186.723L128.896 186.723L130 191.6ZM89.3998 187.6L92.5232 183.696L92.5232 183.696L89.3998 187.6ZM86.7998 143.6L91.3463 145.681L91.3529 145.666L91.3594 145.652L86.7998 143.6ZM101.4 120.4L97.5421 117.219L97.5361 117.226L101.4 120.4ZM122.4 99.4L125.588 103.252L125.594 103.246L122.4 99.4ZM172.8 70.6L171.241 65.8492L171.23 65.8529L171.219 65.8566L172.8 70.6ZM206.2 69.4L203.294 73.4687L203.402 73.5464L203.515 73.6183L206.2 69.4ZM213 76.8L208.567 79.1128L208.606 79.1872L208.647 79.2603L213 76.8ZM212.8 95.8L217.119 98.3194L217.119 98.3194L212.8 95.8ZM205.6 104L208.63 107.977L208.644 107.967L208.657 107.956L205.6 104ZM195.2 106.8L192.426 110.96L192.685 111.133L192.964 111.272L195.2 106.8ZM201.2 97.2L204.978 100.475L204.978 100.475L201.2 97.2ZM205.8 90.6L210.171 93.0282L210.198 92.9788L210.224 92.9287L205.8 90.6ZM204.2 76L201.86 80.4189L201.912 80.4461L201.964 80.4721L204.2 76ZM177.2 78.8L179.028 83.4537L179.064 83.4397L179.099 83.4251L177.2 78.8ZM153.8 91L151.106 86.7874L153.8 91ZM130 108.6L126.773 104.781L126.773 104.781L130 108.6ZM108.8 129.2L105.063 125.878L105.059 125.883L108.8 129.2ZM93.7998 150.2L98.1827 152.606L98.1925 152.588L98.2021 152.57L93.7998 150.2ZM92.3998 179.2L95.5457 175.314L95.5457 175.314L92.3998 179.2ZM102.4 183.8L101.387 188.696L101.403 188.7L101.419 188.703L102.4 183.8ZM130.8 183L129.873 178.087L129.864 178.088L129.856 178.09L130.8 183ZM153.2 177.4L154.659 182.182L154.696 182.171L154.732 182.159L153.2 177.4ZM175.8 168.6L177.9 173.137L177.919 173.129L177.937 173.12L175.8 168.6ZM194.4 157L191.228 153.135L191.204 153.155L191.179 153.175L194.4 157ZM204.4 143.2L209.192 144.625L210.571 139.987L205.981 138.457L204.4 143.2ZM188 143.4L188.481 148.377L188.551 148.37L188.62 148.361L188 143.4ZM175.4 145L176.02 149.961L176.096 149.952L176.172 149.94L175.4 145ZM163.6 146.8L164.333 151.746L164.422 151.733L164.51 151.716L163.6 146.8ZM155.4 148L154.693 143.05L154.449 143.085L154.21 143.144L155.4 148ZM138.6 153L136.859 148.313L136.836 148.321L136.814 148.33L138.6 153ZM129.6 145.2L131.763 149.708L131.8 149.69L131.836 149.672L129.6 145.2ZM143.2 141L144.135 145.912L144.191 145.901L144.247 145.889L143.2 141ZM161.6 138.2L162.097 143.175L162.146 143.17L162.195 143.164L161.6 138.2ZM181.4 136.6L181.604 141.596L181.651 141.594L181.699 141.591L181.4 136.6ZM199.4 135.8L199.278 130.801L199.275 130.802L199.4 135.8ZM221 135.8L220.815 140.797L220.907 140.8H221V135.8ZM232.2 136.4L231.667 141.372L231.755 141.381L231.844 141.387L232.2 136.4ZM243.6 142.2L242.515 137.319L242.451 137.333L242.387 137.349L243.6 142.2ZM234.4 142.4L233.639 147.342L233.827 147.371L234.016 147.385L234.4 142.4ZM219.6 146.2L222.438 150.316L222.453 150.306L222.467 150.296L219.6 146.2ZM208 156.8L204.244 153.499L204.237 153.507L208 156.8ZM197.6 170.6L193.405 167.879L193.379 167.919L193.353 167.96L197.6 170.6ZM190.2 184.8L194.823 186.704L190.2 184.8ZM187.6 198.6L188.812 203.451L193.663 202.238L192.45 197.387L187.6 198.6ZM186 199L184.787 194.149L184.255 194.282L183.764 194.528L186 199ZM184.4 194.4C184.204 194.4 184.098 194.38 184.062 194.372C184.031 194.364 184.055 194.366 184.11 194.397C184.135 194.412 184.161 194.429 184.186 194.448C184.21 194.467 184.228 194.484 184.24 194.496C184.264 194.522 184.246 194.511 184.202 194.43L175.397 199.17C176.257 200.767 177.507 202.152 179.189 203.103C180.85 204.042 182.652 204.4 184.4 204.4V194.4ZM184.34 194.705C183.812 193.561 183.6 192.539 183.6 191.6H173.6C173.6 194.127 174.188 196.572 175.26 198.895L184.34 194.705ZM183.6 191.6C183.6 190.114 184.018 188.164 185.152 185.669L176.048 181.531C174.515 184.903 173.6 188.286 173.6 191.6H183.6ZM185.072 185.836C186.484 183.011 188.028 180.18 189.704 177.344L181.095 172.256C179.305 175.286 177.648 178.322 176.128 181.364L185.072 185.836ZM189.618 177.484C191.583 174.397 193.142 171.528 194.223 168.904L184.976 165.096C184.19 167.005 182.95 169.336 181.181 172.116L189.618 177.484ZM186.772 162.876C182.369 165.895 176.938 168.972 170.436 172.092L174.763 181.108C181.595 177.828 187.497 174.505 192.427 171.124L186.772 162.876ZM170.4 172.11C164.05 175.22 157.224 178.082 149.918 180.691L153.281 190.109C160.909 187.385 168.083 184.38 174.799 181.09L170.4 172.11ZM149.967 180.674C142.795 183.152 135.771 185.167 128.896 186.723L131.104 196.477C138.361 194.833 145.738 192.715 153.232 190.126L149.967 180.674ZM128.896 186.723C122.101 188.262 116.079 189 110.8 189V199C116.987 199 123.765 198.138 131.104 196.477L128.896 186.723ZM110.8 189C102.649 189 96.7293 187.06 92.5232 183.696L86.2763 191.504C92.7369 196.673 101.083 199 110.8 199V189ZM92.5232 183.696C88.7876 180.707 86.3998 175.568 86.3998 167H76.3998C76.3998 177.366 79.3453 185.96 86.2763 191.504L92.5232 183.696ZM86.3998 167C86.3998 160.066 88.0095 152.972 91.3463 145.681L82.2532 141.519C78.3901 149.961 76.3998 158.468 76.3998 167H86.3998ZM91.3594 145.652C94.7607 138.093 99.3825 130.733 105.263 123.574L97.5361 117.226C91.1503 125 86.0389 133.107 82.2401 141.548L91.3594 145.652ZM105.257 123.581C111.319 116.23 118.094 109.454 125.588 103.252L119.212 95.548C111.239 102.146 104.014 109.37 97.5421 117.219L105.257 123.581ZM125.594 103.246C133.241 96.8954 141.267 91.3302 149.673 86.5453L144.726 77.8547C135.799 82.9365 127.291 88.8379 119.205 95.5536L125.594 103.246ZM149.673 86.5453C158.091 81.7536 166.327 78.0282 174.381 75.3434L171.219 65.8566C162.473 68.7718 153.642 72.7797 144.726 77.8547L149.673 86.5453ZM174.359 75.3508C182.498 72.6802 189.899 71.4 196.6 71.4V61.4C188.633 61.4 180.169 62.9198 171.241 65.8492L174.359 75.3508ZM196.6 71.4C199.209 71.4 201.382 72.1035 203.294 73.4687L209.106 65.3313C205.417 62.6965 201.191 61.4 196.6 61.4V71.4ZM203.515 73.6183C205.713 75.0167 207.375 76.8279 208.567 79.1128L217.433 74.4872C215.425 70.6387 212.553 67.5166 208.884 65.1817L203.515 73.6183ZM208.647 79.2603C209.963 81.589 210.6 84.01 210.6 86.6H220.6C220.6 82.2567 219.503 78.1443 217.353 74.3397L208.647 79.2603ZM210.6 86.6C210.6 88.4438 210.017 90.6471 208.481 93.2806L217.119 98.3194C219.316 94.5528 220.6 90.6228 220.6 86.6H210.6ZM208.481 93.2806C206.939 95.9245 204.967 98.17 202.543 100.044L208.657 107.956C212.099 105.297 214.928 102.075 217.119 98.3194L208.481 93.2806ZM202.57 100.023C200.506 101.595 198.614 102.2 196.8 102.2V112.2C201.119 112.2 205.094 110.672 208.63 107.977L202.57 100.023ZM196.8 102.2C197.13 102.2 197.358 102.289 197.436 102.328L192.964 111.272C194.108 111.845 195.403 112.2 196.8 112.2V102.2ZM197.973 102.64C198.441 102.952 198.904 103.428 199.222 104.064C199.53 104.68 199.6 105.239 199.6 105.6H189.6C189.6 107.59 190.465 109.653 192.426 110.96L197.973 102.64ZM199.6 105.6C199.6 105.93 199.559 106.2 199.517 106.393C199.475 106.587 199.425 106.732 199.391 106.82C199.328 106.985 199.287 107.034 199.34 106.95C199.387 106.875 199.483 106.734 199.649 106.523C199.813 106.315 200.027 106.063 200.299 105.763L192.9 99.0366C192.133 99.8806 191.415 100.762 190.86 101.65C190.402 102.383 189.6 103.814 189.6 105.6H199.6ZM200.299 105.763C201.666 104.26 203.227 102.495 204.978 100.475L197.421 93.9253C195.706 95.9047 194.2 97.607 192.9 99.0366L200.299 105.763ZM204.978 100.475C206.946 98.2042 208.676 95.7188 210.171 93.0282L201.429 88.1718C200.257 90.2812 198.92 92.1958 197.421 93.9253L204.978 100.475ZM210.224 92.9287C211.927 89.6941 212.8 86.2301 212.8 82.6H202.8C202.8 84.5699 202.339 86.4392 201.375 88.2713L210.224 92.9287ZM212.8 82.6C212.8 80.3896 212.386 78.166 211.289 76.1557C210.165 74.0949 208.481 72.5504 206.436 71.5279L201.964 80.4721C202.319 80.6496 202.434 80.8051 202.51 80.9443C202.614 81.134 202.8 81.6103 202.8 82.6H212.8ZM206.539 71.581C203.487 69.9652 200.139 69.2 196.6 69.2V79.2C198.661 79.2 200.379 79.6347 201.86 80.4189L206.539 71.581ZM196.6 69.2C190.248 69.2 183.108 70.9681 175.3 74.1749L179.099 83.4251C186.225 80.4986 192.018 79.2 196.6 79.2V69.2ZM175.372 74.1462C167.549 77.2192 159.46 81.4466 151.106 86.7874L156.493 95.2126C164.406 90.1534 171.917 86.2474 179.028 83.4537L175.372 74.1462ZM151.106 86.7874C142.778 92.1121 134.667 98.1114 126.773 104.781L133.227 112.419C140.799 106.022 148.555 100.288 156.493 95.2126L151.106 86.7874ZM126.773 104.781C118.867 111.46 111.629 118.492 105.063 125.878L112.537 132.522C118.771 125.508 125.666 118.807 133.227 112.419L126.773 104.781ZM105.059 125.883C98.5849 133.183 93.3459 140.497 89.3974 147.829L98.2021 152.57C101.72 146.037 106.481 139.35 112.541 132.517L105.059 125.883ZM89.4169 147.794C85.4047 155.102 83.1998 162.264 83.1998 169.2H93.1998C93.1998 164.402 94.7282 158.898 98.1827 152.606L89.4169 147.794ZM83.1998 169.2C83.1998 174.741 85.022 179.661 89.2538 183.086L95.5457 175.314C94.1775 174.206 93.1998 172.459 93.1998 169.2H83.1998ZM89.2538 183.086C92.732 185.902 96.8152 187.75 101.387 188.696L103.413 178.904C100.251 178.25 97.6676 177.031 95.5457 175.314L89.2538 183.086ZM101.419 188.703C105.687 189.556 109.752 190 113.6 190V180C110.514 180 107.112 179.644 103.38 178.897L101.419 188.703ZM113.6 190C118.574 190 124.651 189.274 131.744 187.91L129.856 178.09C123.082 179.393 117.692 180 113.6 180V190ZM131.727 187.913C138.996 186.542 146.642 184.628 154.659 182.182L151.741 172.618C144.025 174.972 136.736 176.792 129.873 178.087L131.727 187.913ZM154.732 182.159C162.785 179.566 170.508 176.56 177.9 173.137L173.699 164.063C166.691 167.307 159.348 170.167 151.667 172.641L154.732 182.159ZM177.937 173.12C185.576 169.509 192.16 165.423 197.62 160.825L191.179 153.175C186.506 157.111 180.69 160.758 173.663 164.08L177.937 173.12ZM197.571 160.865C203.309 156.157 207.366 150.769 209.192 144.625L199.607 141.775C198.501 145.497 195.89 149.309 191.228 153.135L197.571 160.865ZM205.981 138.457C203.982 137.79 201.444 137.6 198.8 137.6V147.6C201.222 147.6 202.417 147.81 202.819 147.943L205.981 138.457ZM198.8 137.6C195.588 137.6 191.767 137.89 187.38 138.439L188.62 148.361C192.766 147.843 196.145 147.6 198.8 147.6V137.6ZM187.518 138.423C183.284 138.833 178.987 139.379 174.628 140.06L176.172 149.94C180.346 149.288 184.449 148.767 188.481 148.377L187.518 138.423ZM174.78 140.039C170.432 140.582 166.4 141.196 162.689 141.884L164.51 151.716C167.999 151.07 171.834 150.485 176.02 149.961L174.78 140.039ZM162.867 141.854C159.269 142.387 156.546 142.785 154.693 143.05L156.107 152.95C157.987 152.681 160.73 152.28 164.333 151.746L162.867 141.854ZM154.21 143.144C147.55 144.775 141.756 146.494 136.859 148.313L140.341 157.687C144.777 156.039 150.183 154.425 156.589 152.856L154.21 143.144ZM136.814 148.33C132.35 150.037 129.685 150.6 128.4 150.6V160.6C131.648 160.6 135.783 159.43 140.385 157.67L136.814 148.33ZM128.4 150.6C128.237 150.6 128.317 150.575 128.538 150.66C128.788 150.757 129.086 150.945 129.334 151.232C129.568 151.503 129.636 151.722 129.642 151.742C129.644 151.747 129.6 151.59 129.6 151.2H119.6C119.6 153.272 120.031 155.76 121.766 157.768C123.621 159.916 126.156 160.6 128.4 160.6V150.6ZM129.6 151.2C129.6 151.193 129.598 151.219 129.588 151.246C129.58 151.268 129.592 151.219 129.691 151.101C129.915 150.832 130.491 150.319 131.763 149.708L127.436 140.692C123.411 142.624 119.6 145.942 119.6 151.2H129.6ZM131.836 149.672C134.747 148.216 138.796 146.929 144.135 145.912L142.264 136.088C136.404 137.205 131.385 138.717 127.364 140.728L131.836 149.672ZM144.247 145.889C149.638 144.734 155.585 143.826 162.097 143.175L161.102 133.225C154.281 133.907 147.961 134.866 142.152 136.111L144.247 145.889ZM162.195 143.164C168.735 142.38 175.205 141.857 181.604 141.596L181.196 131.604C174.528 131.876 167.797 132.42 161.004 133.236L162.195 143.164ZM181.699 141.591C188.321 141.194 194.262 140.93 199.525 140.798L199.275 130.802C193.871 130.937 187.811 131.206 181.1 131.609L181.699 141.591ZM199.522 140.799C204.974 140.666 209.193 140.6 212.2 140.6V130.6C209.073 130.6 204.759 130.668 199.278 130.801L199.522 140.799ZM212.2 140.6C214.38 140.6 217.245 140.664 220.815 140.797L221.185 130.803C217.554 130.669 214.553 130.6 212.2 130.6V140.6ZM221 140.8C224.554 140.8 228.11 140.99 231.667 141.372L232.732 131.428C228.823 131.01 224.912 130.8 221 130.8V140.8ZM231.844 141.387C235.387 141.64 238.191 142.073 240.327 142.635L242.872 132.965C239.942 132.193 236.479 131.693 232.556 131.413L231.844 141.387ZM240.327 142.635C240.791 142.757 241.113 142.87 241.322 142.958C241.539 143.049 241.565 143.085 241.484 143.025C241.401 142.964 241.124 142.743 240.863 142.303C240.579 141.824 240.4 141.23 240.4 140.6H250.4C250.4 137.938 248.892 136.063 247.416 134.975C246.046 133.966 244.398 133.366 242.872 132.965L240.327 142.635ZM240.4 140.6C240.4 140.16 240.486 139.635 240.728 139.098C240.969 138.561 241.303 138.152 241.628 137.863C242.215 137.341 242.688 137.281 242.515 137.319L244.684 147.081C245.711 146.853 247.085 146.392 248.272 145.337C249.635 144.125 250.4 142.434 250.4 140.6H240.4ZM242.387 137.349C241.852 137.483 240.958 137.6 239.6 137.6V147.6C241.441 147.6 243.214 147.45 244.812 147.051L242.387 137.349ZM239.6 137.6C237.995 137.6 236.389 137.538 234.783 137.415L234.016 147.385C235.877 147.528 237.738 147.6 239.6 147.6V137.6ZM235.16 137.458C233.453 137.196 231.899 137 230.8 137V147C230.8 147 230.799 147 230.8 147C230.8 147 230.799 147 230.8 147C230.8 147 230.8 147 230.8 147C230.8 147 230.801 147 230.801 147C230.802 147 230.803 147 230.804 147C230.807 147 230.812 147 230.817 147C230.829 147.001 230.845 147.001 230.867 147.002C230.91 147.004 230.968 147.007 231.044 147.012C231.196 147.023 231.395 147.041 231.648 147.069C232.155 147.126 232.814 147.215 233.639 147.342L235.16 137.458ZM230.8 137C225.966 137 221.241 138.948 216.732 142.104L222.467 150.296C225.958 147.852 228.7 147 230.8 147V137ZM216.761 142.084C212.485 145.033 208.318 148.863 204.244 153.499L211.756 160.101C215.415 155.937 218.981 152.701 222.438 150.316L216.761 142.084ZM204.237 153.507C200.34 157.961 196.73 162.753 193.405 167.879L201.795 173.321C204.869 168.581 208.192 164.173 211.763 160.093L204.237 153.507ZM193.353 167.96C190.167 173.087 187.565 178.066 185.576 182.896L194.823 186.704C196.568 182.467 198.899 177.98 201.846 173.24L193.353 167.96ZM185.576 182.896C183.592 187.714 182.4 192.206 182.4 196.2H192.4C192.4 194.06 193.074 190.952 194.823 186.704L185.576 182.896ZM182.4 196.2C182.4 197.369 182.463 198.667 182.749 199.813L192.45 197.387C192.472 197.472 192.453 197.426 192.432 197.185C192.414 196.959 192.4 196.637 192.4 196.2H182.4ZM186.387 193.749C185.854 193.883 185.32 194.016 184.787 194.149L187.212 203.851C187.746 203.717 188.279 203.584 188.812 203.451L186.387 193.749ZM183.764 194.528C183.842 194.489 184.069 194.4 184.4 194.4V204.4C185.797 204.4 187.091 204.045 188.236 203.472L183.764 194.528Z" fill="#7100B4" mask="url(#path-5-outside-2_29_345)"/>
<defs>
<filter id="filter0_d_29_345" x="21.3672" y="22.6172" width="110.391" height="156.016" filterUnits="userSpaceOnUse" color-interpolation-filters="sRGB">
<feFlood flood-opacity="0" result="BackgroundImageFix"/>
<feColorMatrix in="SourceAlpha" type="matrix" values="0 0 0 0 0 0 0 0 0 0 0 0 0 0 0 0 0 0 127 0" result="hardAlpha"/>
<feOffset dx="10" dy="15"/>
<feComposite in2="hardAlpha" operator="out"/>
<feColorMatrix type="matrix" values="0 0 0 0 0.443137 0 0 0 0 0 0 0 0 0 0.705882 0 0 0 1 0"/>
<feBlend mode="normal" in2="BackgroundImageFix" result="effect1_dropShadow_29_345"/>
<feBlend mode="normal" in="SourceGraphic" in2="effect1_dropShadow_29_345" result="shape"/>
</filter>
</defs>
</svg>
